<svg height="512" width="512" xmlns="http://www.w3.org/2000/svg" xmlns:xlink="http://www.w3.org/1999/xlink"><linearGradient id="a" gradientUnits="userSpaceOnUse" x1="120" x2="120" y1="46.75" y2="435.474"><stop offset="0" stop-color="#fc5c7d"/><stop offset=".129" stop-color="#f35e85"/><stop offset=".343" stop-color="#d9659b"/><stop offset=".616" stop-color="#b070bf"/><stop offset=".934" stop-color="#777ff0"/><stop offset="1" stop-color="#6a82fb"/></linearGradient><linearGradient id="b" x1="72" x2="72" xlink:href="#a" y1="46.75" y2="435.474"/><linearGradient id="c" x1="168" x2="168" xlink:href="#a" y1="46.75" y2="435.474"/><linearGradient id="d" x1="280" x2="280" xlink:href="#a" y1="46.75" y2="435.474"/><linearGradient id="e" x1="232" x2="232" xlink:href="#a" y1="46.75" y2="435.474"/><linearGradient id="f" x1="328" x2="328" xlink:href="#a" y1="46.75" y2="435.474"/><linearGradient id="g" x1="200" x2="200" xlink:href="#a" y1="46.75" y2="435.474"/><linearGradient id="h" x1="64" x2="64" xlink:href="#a" y1="46.75" y2="435.474"/><linearGradient id="i" x1="96" x2="96" xlink:href="#a" y1="46.75" y2="435.474"/><linearGradient id="j" x1="152" x2="152" xlink:href="#a" y1="46.75" y2="435.474"/><linearGradient id="k" x1="252" x2="252" xlink:href="#a" y1="46.75" y2="435.474"/><linearGradient id="l" x1="24" x2="24" xlink:href="#a" y1="46.75" y2="435.474"/><g fill="url(#a)"><path d="M144 104a24 24 0 10-24 24 24.027 24.027 0 0024-24zm-32 0a8 8 0 118 8 8.009 8.009 0 01-8-8zM112 48h16v16h-16zM112 144h16v16h-16z"/></g><path d="M64 96h16v16H64z" fill="url(#b)"/><path d="M160 96h16v16h-16z" fill="url(#c)"/><path d="M280 128a24 24 0 10-24-24 24.027 24.027 0 0024 24zm0-32a8 8 0 11-8 8 8.009 8.009 0 018-8zM272 48h16v16h-16zM272 144h16v16h-16z" fill="url(#d)"/><path d="M224 96h16v16h-16z" fill="url(#e)"/><path d="M320 96h16v16h-16z" fill="url(#f)"/><path d="M192 432h16v16h-16z" fill="url(#g)"/><path d="M56 248h16v16H56z" fill="url(#h)"/><path d="M88 248h16v16H88z" fill="url(#i)"/><path d="M56 280h16v16H56z" fill="url(#h)"/><path d="M88 280h16v16H88z" fill="url(#i)"/><path d="M56 312h16v16H56z" fill="url(#h)"/><path d="M88 312h128v16H88z" fill="url(#j)"/><path d="M208 248h-80a8 8 0 00-8 8v32a8 8 0 008 8h80a8 8 0 008-8v-32a8 8 0 00-8-8zm-8 32h-64v-16h64z" fill="url(#c)"/><path d="M480 224h-56a8 8 0 00-4.8 1.6L389.333 248H368v-8a32.036 32.036 0 00-32-32h-48v-16.367A88 88 0 10200 67.36a88 88 0 10-88 124.273V208H48a32.036 32.036 0 00-32 32v112a32.036 32.036 0 0032 32h16v24a8 8 0 008 8h16v24a8 8 0 008 8h52.687l-32 32H48v16h72a8 8 0 005.657-2.343l37.682-37.682A40.14 40.14 0 00192 479.2V496h16v-16.8a40.119 40.119 0 0031.2-31.2H256v48h16v-48h32a8 8 0 008-8v-24h16a8 8 0 008-8v-24a32.036 32.036 0 0032-32v-8h21.333l29.867 22.4a8 8 0 004.8 1.6h56a8 8 0 008-8V232a8 8 0 00-8-8zM280 32a72 72 0 11-72 72 72.081 72.081 0 0172-72zM48 104a72 72 0 1172 72 72.081 72.081 0 01-72-72zm80 87.633a88.191 88.191 0 0072-50.993 88.191 88.191 0 0072 50.993V208H128zM32 352V240a16.019 16.019 0 0116-16h272v80h-16v-32a24 24 0 00-48 0v88a23.885 23.885 0 001.376 8H48a16.019 16.019 0 01-16-16zm240 8v-88a8 8 0 0116 0v88a8 8 0 01-16 0zm-168 72v-16h56v16zm96 32a24.028 24.028 0 01-24-24v-24h48v24a24.028 24.028 0 01-24 24zm96-32h-56v-16h56zm24-32H80v-16h240zm32-48a16.019 16.019 0 01-16 16h-33.376a23.885 23.885 0 001.376-8v-40h24a8 8 0 008-8v-88a16.019 16.019 0 0116 16zm48-92l16-12v96l-16-12zm-32 4h16v64h-16zm64 88V240h40v16h-16v16h16v16h-16v16h16v16h-16v16h16v16z" fill="url(#k)"/><path d="M16 480h16v16H16z" fill="url(#l)"/></svg>