<svg height="640" viewBox="0 0 480 480" width="640" xmlns="http://www.w3.org/2000/svg"><linearGradient id="a" gradientUnits="userSpaceOnUse" x1="240" x2="240" y1="480" y2="0"><stop offset="0" stop-color="#12c2e9"/><stop offset=".056" stop-color="#19bfe9"/><stop offset=".137" stop-color="#2db6ea"/><stop offset=".235" stop-color="#4da7ea"/><stop offset=".344" stop-color="#7993eb"/><stop offset=".462" stop-color="#b279ed"/><stop offset=".497" stop-color="#c471ed"/><stop offset="1" stop-color="#f64f59"/></linearGradient><path d="M240 0C107.453 0 0 107.453 0 240s107.453 240 240 240 240-107.453 240-240C479.852 107.516 372.484.148 240 0zm0 464C116.29 464 16 363.71 16 240S116.29 16 240 16s224 100.29 224 224c-.14 123.652-100.348 223.86-224 224zm-42.96-334.207c-2.395-1.945-5.692-2.336-8.477-1.012S184 132.914 184 136v208c0 3.086 1.777 5.895 4.563 7.219s6.082.933 8.476-1.012l128-104c1.871-1.52 2.953-3.797 2.953-6.207s-1.082-4.688-2.953-6.207zM200 327.199V152.801L307.313 240zm0 0" fill="url(#a)"/></svg>